<svg xmlns="http://www.w3.org/2000/svg" height="512" viewBox="-24 0 496 496" width="512"><path d="M448 208h-16v-99.648c0-29.84-18.777-56.938-46.719-67.415L304 10.457V0H144v10.457l-81.281 30.48C34.777 51.415 16 78.505 16 108.353V208H0v48h79.32c-1.433 35.047-5.496 70.063-12.36 104.414L46.239 464H70.23c15.985 0 31.48 3.29 46.075 9.785l24.894 11.063c16.649 7.39 34.336 11.152 52.57 11.152h12L224 441.297 242.23 496h12c18.235 0 35.922-3.762 52.57-11.16l24.895-11.063C346.29 467.29 361.793 464 377.77 464h23.992l-20.723-103.586c-6.871-34.351-10.926-69.367-12.36-104.414H448zm-32-99.648V208h-47.68c1.407-49.688 8.375-99.098 20.72-147.383 16.417 10.04 26.96 28.07 26.96 47.735zM224 76.687L195.312 48h57.375zm-13.504 9.122l-35.152 17.574c-3.504 1.754-8.114-.832-8.434-4.735l-5.125-61.55zm75.719-48.711l-5.125 61.55c-.328 3.895-4.93 6.497-8.434 4.735l-35.152-17.574zM284.687 16l-16 16h-89.375l-16-16zM32 108.352c0-19.665 10.55-37.704 26.969-47.735C71.297 108.84 78.28 158.273 79.687 208H32zM16 240v-16h63.953c0 1 .047 2.008.047 3.008v1.695c0 3.762-.215 7.527-.281 11.297zm178.23 240h-.46c-15.985 0-31.48-3.29-46.075-9.785l-24.894-11.063C106.152 451.762 88.465 448 70.23 448h-4.47l16.887-84.45A689.647 689.647 0 0 0 96 228.704v-1.695c0-58.336-7.52-116.45-22.246-173.121l71.148-26.68 6.067 72.77c.933 11.222 10.496 20.023 21.765 20.023 3.371 0 6.754-.8 9.77-2.305L216 100.945v313.75zm188.008-32h-4.468c-18.235 0-35.922 3.762-52.57 11.16l-24.895 11.063C285.71 476.71 270.207 480 254.23 480h-.46L232 414.703V100.945l33.504 16.75a21.965 21.965 0 0 0 9.762 2.305c11.27 0 20.832-8.8 21.765-20.023l6.067-72.77 71.14 26.68C359.535 110.407 352 168.594 352 227.007v1.696c0 45.168 4.496 90.535 13.352 134.848zM432 240h-63.719c-.066-3.77-.281-7.535-.281-11.297v-1.695c0-1 .047-2.008.047-3.008H432zm0 0" data-original="#000000" class="active-path" data-old_color="#EB0505" fill="#7AB4C2"/><path d="M248 192h16v16h-16zm0-48h16v16h-16zm0 96h16v16h-16zm0 48h16v16h-16zm0 48h16v16h-16zM112 160h88v16h-88zm0 0" data-original="#000000" class="active-path" data-old_color="#EB0505" fill="#7AB4C2"/></svg>